<?xml version="1.0" encoding="UTF-8"?>
<svg width="88px" height="88px" viewBox="0 0 88 88" version="1.1" xmlns="http://www.w3.org/2000/svg" xmlns:xlink="http://www.w3.org/1999/xlink">
    <title>gf</title>
    <g id="Page-1" stroke="none" stroke-width="1" fill="none" fill-rule="evenodd">
        <g id="gf" transform="translate(0.010000, 0.019996)" fill="#000000" fill-rule="nonzero">
            <path d="M46.46,35.5300038 C46.46,34.5900038 46.48,33.6500038 46.46,32.7100038 C46.42,31.2200038 45.38,30.0900038 44.05,30.0600038 C42.66,30.0300038 41.59,31.1700038 41.54,32.7300038 C41.54,32.9500038 41.54,33.1600038 41.54,33.3700038 C41.54,47.1000038 41.54,60.8300038 41.54,74.5600038 C41.54,74.9000038 41.53,75.2500038 41.56,75.5900038 C41.69,76.8800038 42.67,77.7900038 43.95,77.8100038 C45.25,77.8400038 46.33,76.8900038 46.46,75.5600038 C46.5,75.2200038 46.47,74.8800038 46.47,74.5300038 C46.47,67.6400038 46.47,60.7600038 46.47,53.8700038 L46.47,35.5200038 L46.46,35.5300038 Z" id="Path"></path>
            <path d="M28.96,22.7700038 C27.16,29.2200038 32.57,36.5400038 39.76,36.0600038 C41.52,28.9900038 35.53,22.1100038 28.96,22.7700038 Z" id="Path"></path>
            <path d="M59.38,22.7200038 C52.28,22.1800038 46.67,29.6800038 48.67,35.9300038 C54.94,36.7700038 61.37,29.7200038 59.38,22.7200038 L59.38,22.7200038 Z" id="Path"></path>
            <path d="M50,63.9900038 C56.6,64.3700038 62.2,57.9600038 60.98,51.3800038 C54.35,50.6200038 48.22,56.6900038 49.09,63.1400038 C49.13,63.4700038 49.67,63.9700038 50,63.9900038 L50,63.9900038 Z" id="Path"></path>
            <path d="M60.42,37.2900038 C53.66,36.2400038 47.21,43.1000038 48.66,49.7200038 C55.37,50.8100038 61.77,44.1600038 60.42,37.2900038 Z" id="Path"></path>
            <path d="M43.98,10.6600038 C38.32,14.6100038 38.29,23.6500038 43.99,27.8300038 C49.7,23.4100038 49.67,14.6800038 43.98,10.6600038 Z" id="Path"></path>
            <path d="M39.84,49.0200038 C40.4,41.7900038 34.31,36.4500038 27.97,37.1900038 C26.71,43.7400038 32.45,50.2700038 38.98,49.7700038 C39.29,49.7500038 39.81,49.3000038 39.83,49.0200038 L39.84,49.0200038 Z" id="Path"></path>
            <path d="M27.39,51.4100038 C25.99,58.1200038 32.6,65.1200038 39.11,63.8200038 C40.46,57.5200038 34.66,50.4000038 27.39,51.4100038 L27.39,51.4100038 Z" id="Path"></path>
            <path d="M17.49,17.3500038 C32.77,2.24000379 55.35,3.90000379 68.12,15.3800038 C66.62,16.8500038 65.1,18.2900038 63.64,19.7900038 C63.54,19.9000038 63.43,20.0500038 63.35,20.2100038 L63.79,21.7600038 C64.4,23.9000038 64.46,26.1100038 63.96,28.3100038 C63.96,28.3400038 63.94,28.3800038 63.94,28.4100038 L77.13,15.1500038 C69.05,5.89000379 57.19,0.010003792 44.04,0 C19.81,-0.00999620804 0.01,19.7600038 0,44 C0,53.7400038 3.21,62.7800038 8.64,70.0900038 L13.27,65.4300038 C3.07,51.2900038 4.04,30.6600038 17.49,17.3600038 L17.49,17.3500038 Z" id="Path"></path>
            <path d="M79.25,17.7700038 L74.7,22.3500038 C84.61,36.0900038 84.18,56.8400038 70.53,70.5000038 C56.06,84.9900038 33.47,84.6300038 20.04,72.7600038 C22.76,70.0500038 25.47,67.3400038 28.13,64.6900038 C27.18,63.9700038 26.31,63.1200038 25.55,62.1800038 C24.89,61.3700038 24.31,60.4800038 23.83,59.5600038 L10.75,72.7200038 C18.82,82.0100038 30.71,87.9400038 43.92,87.9802434 C68.04,88.0600038 88.02,68.1000038 87.98006,43.9600038 C87.96,34.1700038 84.71,25.1000038 79.24,17.7800038 L79.25,17.7700038 Z" id="Path"></path>
        </g>
    </g>
</svg>